<svg width="53" height="50" viewBox="0 0 53 50" fill="none" xmlns="http://www.w3.org/2000/svg">
<path d="M27.7577 41.4149L40.2743 49.3619C41.8886 50.3802 43.8753 48.8652 43.4035 47.0026L39.7776 32.7476C39.6796 32.3525 39.6952 31.9377 39.8226 31.551C39.95 31.1644 40.1841 30.8216 40.4978 30.5621L51.7231 21.1995C53.1883 19.9826 52.4433 17.524 50.531 17.3998L35.8786 16.4561C35.4788 16.4328 35.0944 16.2936 34.7725 16.0555C34.4505 15.8173 34.2049 15.4905 34.0657 15.115L28.6021 1.35665C28.4574 0.959057 28.194 0.615595 27.8474 0.372892C27.5009 0.130188 27.088 0 26.665 0C26.2419 0 25.829 0.130188 25.4825 0.372892C25.136 0.615595 24.8725 0.959057 24.7279 1.35665L19.2642 15.115C19.125 15.4905 18.8794 15.8173 18.5574 16.0555C18.2355 16.2936 17.8511 16.4328 17.4513 16.4561L2.79891 17.3998C0.886643 17.524 0.141605 19.9826 1.60685 21.1995L12.8321 30.5621C13.1458 30.8216 13.3799 31.1644 13.5073 31.551C13.6347 31.9377 13.6503 32.3525 13.5523 32.7476L10.1996 45.9596C9.62842 48.1947 12.0125 50.0076 13.9248 48.7907L25.5722 41.4149C25.8989 41.2072 26.2779 41.0969 26.665 41.0969C27.052 41.0969 27.4311 41.2072 27.7577 41.4149Z" fill="#171717" fill-opacity="1"/>
</svg>
